<?xml version="1.0" encoding="UTF-8" standalone="no"?>
<!-- Created with Inkscape (http://www.inkscape.org/) -->

<svg
   version="1.1"
   id="svg2"
   width="5333.3335"
   height="5333.3335"
   viewBox="0 0 5333.3335 5333.3335"
   sodipodi:docname="vecteezy_ready-made-pizza-dough-with-tomato-sauce-and-cheese-about_25901588.eps"
   xmlns:inkscape="http://www.inkscape.org/namespaces/inkscape"
   xmlns:sodipodi="http://sodipodi.sourceforge.net/DTD/sodipodi-0.dtd"
   xmlns="http://www.w3.org/2000/svg"
   xmlns:svg="http://www.w3.org/2000/svg">
  <defs
     id="defs6" />
  <sodipodi:namedview
     id="namedview4"
     pagecolor="#ffffff"
     bordercolor="#000000"
     borderopacity="0.25"
     inkscape:showpageshadow="2"
     inkscape:pageopacity="0.0"
     inkscape:pagecheckerboard="0"
     inkscape:deskcolor="#d1d1d1" />
  <g
     id="g8"
     inkscape:groupmode="layer"
     inkscape:label="ink_ext_XXXXXX"
     transform="matrix(1.3333333,0,0,-1.3333333,0,5333.3333)">
    <g
       id="g10"
       transform="scale(0.1)">
      <path
         d="M 40000,0 H 0 V 40000 H 40000 V 0"
         style="fill:transparent;fill-opacity:1;fill-rule:evenodd;stroke:none"
         id="path12" />
      <path
         d="m 17338.6,38473.5 c 0,0 4778.5,163.4 7111.7,-369.9 2333.1,-533.3 5976.1,-2996.6 7444.1,-4631.5 1468.1,-1634.8 5854.4,-7610.3 5921.1,-9712.2 66.7,-2101.9 200.2,-3603.3 400.3,-4370.7 200.2,-767.3 66.8,-1034.2 -200.1,-2001.8 -267,-967.5 -433.8,-1601.5 -400.4,-2202 C 37648.7,14584.8 35113,8812.9 33645,7812 32177,6811.1 30709,6811.1 30375.3,6077.1 c -333.6,-734 -4704.2,-3102.8 -5605.1,-3236.3 -900.8,-133.4 -2001.8,100.1 -2635.7,-100.1 -633.9,-200.2 -1901.7,-333.6 -2635.7,-100.1 -734,233.6 -2243.5,-381.2 -3826.7,-214.6 -1583.2,166.7 -6182.92,2549.9 -7082.86,3349.8 -899.95,799.9 -3049.78,3233.1 -3816.4,3666.4 -766.61,433.3 -2716.48,5249.6 -2699.81,6682.9 16.67,1433.2 116.67,2049.8 -399.98,2716.5 -516.64,666.6 -616.63,1516.5 -483.3,2416.5 133.3,899.9 1183.27,4583 1166.59,5066.3 -16.67,483.3 16.68,966.6 466.63,1549.9 449.96,583.3 716.6,983.2 783.28,1449.9 66.66,466.6 1116.59,1216.5 1283.23,1733.2 166.68,516.6 1366.57,3233.1 4066.39,4649.7 2699.83,1416.5 6216.23,2449.8 6516.23,2733.1 300,283.3 1866.5,33.3 1866.5,33.3"
         style="fill:#b9561e;fill-opacity:1;fill-rule:evenodd;stroke:none"
         id="path14" />
      <path
         d="m 17869,37854.8 c 0,0 4778.5,163.3 7111.6,-370 2333.2,-533.3 5976.2,-2996.6 7444.2,-4631.4 1468,-1634.9 5854.3,-7610.4 5921.1,-9712.3 66.6,-2101.9 200.1,-3603.3 400.3,-4370.6 200.2,-767.4 66.7,-1034.3 -200.2,-2001.8 -266.9,-967.6 -433.7,-1601.5 -400.3,-2202.1 33.4,-600.5 -2502.3,-6372.4 -3970.3,-7373.4 -1468,-1000.9 -2936,-1000.9 -3269.7,-1734.9 -333.6,-734 -4704.3,-3102.8 -5605.1,-3236.3 -900.8,-133.4 -2001.8,100.1 -2635.7,-100.1 -633.9,-200.2 -1901.7,-333.6 -2635.7,-100.1 -734.1,233.6 -2243.5,-381.2 -3826.7,-214.6 -1583.3,166.7 -6182.9,2549.9 -7082.89,3349.8 -899.95,800 -3049.78,3233.1 -3816.39,3666.4 -766.62,433.3 -2716.48,5249.7 -2699.82,6682.9 16.68,1433.2 116.63,2049.9 -399.97,2716.5 -516.65,666.6 -616.64,1516.5 -483.3,2416.5 133.3,899.9 1183.26,4583 1166.58,5066.3 -16.66,483.3 16.68,966.6 466.64,1549.9 449.96,583.3 716.6,983.3 783.28,1449.9 66.65,466.6 1116.58,1216.6 1283.22,1733.2 166.68,516.6 1366.58,3233.1 4066.4,4649.7 2699.85,1416.5 6216.25,2449.8 6516.25,2733.1 299.9,283.3 1866.5,33.4 1866.5,33.4"
         style="fill:#93451d;fill-opacity:1;fill-rule:evenodd;stroke:none"
         id="path16" />
      <path
         d="m 18008.6,36802.4 c 0,0 4498.9,153.7 6695.5,-348.3 2196.7,-502.1 5626.5,-2821.3 7008.7,-4360.5 1382.1,-1539.2 5511.8,-7165.1 5574.6,-9144 62.8,-1979 188.4,-3392.5 376.9,-4115 188.5,-722.4 62.8,-973.7 -188.5,-1884.7 -251.3,-910.9 -408.3,-1507.7 -376.9,-2073.1 31.4,-565.5 -2355.9,-5999.7 -3738,-6942 -1382.1,-942.4 -2764.2,-942.4 -3078.3,-1633.5 -314.2,-691 -4429.1,-2921.2 -5277.2,-3046.9 -848.1,-125.7 -1884.7,94.3 -2481.5,-94.2 -596.9,-188.5 -1790.5,-314.1 -2481.6,-94.3 -691,219.9 -2112.2,-358.9 -3602.8,-202 -1490.6,156.9 -5821.1,2400.7 -6668.41,3153.8 -847.29,753.1 -2871.34,3043.9 -3593.11,3451.9 -721.74,408 -2557.52,4942.5 -2541.86,6291.8 15.7,1349.5 109.85,1930 -376.55,2557.6 -486.42,627.6 -580.56,1427.8 -455.04,2275.1 125.52,847.3 1114.03,4314.9 1098.34,4769.9 -15.7,455.1 15.69,910.1 439.33,1459.2 423.63,549.2 674.7,925.8 737.45,1365.1 62.77,439.3 1051.26,1145.4 1208.18,1631.8 156.88,486.4 1286.59,3044 3828.47,4377.6 2541.8,1333.7 5852.5,2306.6 6135,2573.3 282.4,266.7 1757.3,31.4 1757.3,31.4"
         style="fill:#e12e22;fill-opacity:1;fill-rule:evenodd;stroke:none"
         id="path18" />
      <path
         d="m 5118.64,29967.7 c 141.58,167.5 255.14,328.1 301.21,470.9 8.89,27.6 20.91,61.8 35.78,101.4 859.19,1384.9 1728.34,2260.3 2077.84,2467.3 771.55,457 4513.23,2738.8 9248.83,3642.5 4735.5,903.7 7828.7,-1166.2 7857.3,-1327.8 28.6,-161.7 -3314.4,786.2 -5391.8,918.8 -2077.3,132.6 -2298.3,-640.9 -3557.9,-1414.4 -1259.7,-773.5 -3425.4,-618.8 -3955.7,-1171.3 -530.4,-552.5 -1613.3,-1237.5 -1613.3,-1237.5 0,0 0,0 -1856.27,-530.4 C 6408.34,31356.9 6209.42,29832 5818.99,27976.6 5428.57,26121.1 3319.04,23574.5 3319.04,23574.5 c 67.75,2564.9 887.64,4761.8 1799.6,6393.2"
         style="fill:#92191e;fill-opacity:1;fill-rule:evenodd;stroke:none"
         id="path20" />
      <path
         d="m 22423,3192.5 c -545,-172.1 -1558.4,-294.8 -2298.4,-177.6 -393.2,-47.7 -759.1,-62.5 -1087.2,-36.3 -211.8,16.9 -412.1,40.4 -602,69.4 -718.6,-110.7 -1585.1,-263.8 -2474.9,-170.2 C 14377.3,3044.5 9777.65,5427.7 8877.7,6227.6 7977.74,7027.5 5827.91,9460.7 5061.3,9894 4474.94,10225.4 3196.25,13121.2 2634.88,15106 2888.19,13337.7 4434.37,9239.6 5170.61,8823.4 5906.87,8407.3 7689.29,5846.4 8589.24,5046.5 9489.18,4246.6 14619.3,1554 16202.5,1387.4 c 216.9,-22.9 6749.4,13.4 6793.8,27.4 633.9,200.2 1801.2,276 2702.1,409.4 900.8,133.5 5337.8,2590.7 5671.4,3324.7 333.6,734 1337.6,1043.5 2805.6,2044.3 1467.9,1000.9 4346.2,6496.7 4312.8,7097.2 -33.4,600.5 -209.1,1510.7 57.8,2478.3 266.9,967.5 400.4,1234.4 200.2,2001.8 -200.2,767.3 -333.7,2268.7 -400.3,4370.6 -9,280.7 -94.9,630.5 -240.7,1029.8 67.2,-2080.5 200.2,-3567.5 399.1,-4329.9 200.2,-767.3 66.7,-1034.3 -200.2,-2001.8 -266.9,-967.5 -433.7,-1601.5 -400.3,-2202 33.3,-600.6 -2502.3,-6372.5 -3970.4,-7373.4 -1467.9,-1000.9 -2935.9,-1000.9 -3269.6,-1734.9 -333.6,-734 -4704.3,-3102.8 -5605.1,-3236.3 -900.8,-133.4 -2001.8,100.1 -2635.7,-100.1"
         style="fill:#b9561e;fill-opacity:1;fill-rule:evenodd;stroke:none"
         id="path22" />
      <path
         d="m 6035.92,30611.9 c 0,0 748.24,2193.7 2363.75,3333.1 1615.53,1139.3 3860.23,1513.4 5033.63,2329.7 1173.3,816.3 4897.5,986.3 4897.5,986.3 0,0 -3588.1,-510.2 -4302.3,-1122.4 -714.3,-612.1 -3367.1,-2499.7 -4081.34,-2669.8 -714.22,-170 -1496.48,238.1 -3911.24,-2856.9"
         style="fill:#e12e22;fill-opacity:1;fill-rule:evenodd;stroke:none"
         id="path24" />
      <path
         d="m 23177.4,37312 c 0,0 2210.7,-136 3724.1,-918.3 1513.5,-782.2 4523.5,-2958.9 5152.7,-3673.1 629.2,-714.3 -4336.4,3758.2 -8876.8,4591.4"
         style="fill:#f5c249;fill-opacity:1;fill-rule:evenodd;stroke:none"
         id="path26" />
      <path
         d="m 35378.6,28035.1 c 0,0 2236.3,-2558.8 2202.3,-3953.3 -34,-1394.4 119.1,-3112 289.1,-3605.1 170.1,-493.2 187.1,-935.3 68,-2329.7 -119,-1394.5 -952.3,-4234.4 -952.3,-4234.4 0,0 901.3,4472.4 612.2,5628.8 -289.1,1156.4 -153,3792.2 -510.1,4846.5 -357.2,1054.4 -204.1,1156.4 -1709.2,3647.2"
         style="fill:#f5c249;fill-opacity:1;fill-rule:evenodd;stroke:none"
         id="path28" />
      <path
         d="m 5452.36,13213.2 c 0,0 447.52,-2684.7 1331.8,-3620 884.28,-935.3 1853.58,-1326.4 2295.72,-2108.6 442.15,-782.3 2074.62,-2584.8 3316.02,-2737.9 1037.1,-127.9 2959.5,-634 3675.2,-911.8 -599.7,308.4 -1058.9,597.2 -1561.6,675.7 -1089.4,170.2 -2825.7,1055.4 -3336.3,1838.4 -510.7,783 -2315.05,2417.1 -2995.93,2791.6 -680.89,374.5 -1702.22,1804.4 -2383.1,3268.3 -95.75,205.9 -213.08,479.7 -341.81,804.3"
         style="fill:#f5c249;fill-opacity:1;fill-rule:evenodd;stroke:none"
         id="path30" />
      <path
         d="m 2974.96,25119.2 c 0,0 -1003.33,-3282.1 -1020.34,-4540.5 -16.99,-1258.4 136.05,-1955.6 544.18,-2244.7 408.13,-289.1 527.17,-765.2 476.16,-1598.5 -51.02,-833.3 16.99,-1241.4 306.09,-1173.4 289.09,68 612.2,1530.5 153.05,2142.7 -459.14,612.2 -1105.35,1751.6 -935.3,2788.9 170.06,1037.3 34.01,2346.7 476.16,4625.5"
         style="fill:#f5c249;fill-opacity:1;fill-rule:evenodd;stroke:none"
         id="path32" />
      <path
         d="m 8715.06,30546.8 c 2342.54,883.9 1325.94,2917.1 7292.64,3668.4 5966.7,751.4 9281.6,0 10563.3,-2033.1 1281.7,-2033.1 -4419.7,-3270.7 -8574.4,-5348 -4154.6,-2077.3 -3889.4,-1502.7 -4198.8,-2165.7 -309.4,-662.9 -1767.9,-1812 663,-2254 2430.9,-442 8044,2077.3 9900.3,-663 1856.3,-2740.3 3624.2,-4508.2 -1281.7,-6408.7 -4906,-1900.5 -7292.7,-2519.3 -10828.5,-1944.7 -3535.84,574.5 -3049.66,442 -3668.45,707.1 -618.77,265.2 -2165.66,1723.7 -3005.44,3668.5 -1759.77,4075.2 -1343.12,11082.1 3138.05,12773.2"
         style="fill:#e12e22;fill-opacity:1;fill-rule:evenodd;stroke:none"
         id="path34" />
      <path
         d="m 11278.5,8757.2 c 1326,-1149.1 4375.6,-2872.8 6408.7,-3049.6 2033.1,-176.8 4508.2,-1414.3 6364.5,-751.4 1856.3,663 1900.5,751.4 1900.5,751.4 0,0 2342.5,1679.5 3756.9,1988.9 1414.3,309.4 4905.9,1900.5 5878.3,6010.9 972.3,4110.4 2386.6,6718.1 176.8,7027.5 -4474.3,626.4 -4033.8,-10468.8 -9502.6,-11889.3 -3403.2,-883.9 -5878.3,-2607.6 -7602,-309.3 -1723.7,2298.3 -3005.5,3005.4 -5259.6,2872.8 -2254.1,-132.6 -3977.76,-1193.3 -2121.5,-2651.9"
         style="fill:#e12e22;fill-opacity:1;fill-rule:evenodd;stroke:none"
         id="path36" />
      <path
         d="m 31609.7,30502.6 c -132.6,-1303.8 -1082.8,-972.4 -928.2,-2320.4 154.7,-1348 3867.4,-1591.1 3867.4,-4021.9 0,-2430.9 -2298.3,-3005.5 -2254,-3889.4 44.2,-884 4817.5,1458.5 3712.6,4773.4 -1105,3314.8 -3270.7,3226.4 -3270.7,4773.3 0,1547 -3580,5082.8 -6718,5568.9 -5740.9,889.5 5721,-3604.8 5590.9,-4883.9"
         style="fill:#c22324;fill-opacity:1;fill-rule:evenodd;stroke:none"
         id="path38" />
      <path
         d="m 6593.76,13376 c 662.98,-1237.5 419.89,-2475 1922.61,-2298.2 1502.73,176.7 1812.13,1104.9 3668.43,972.3 1856.3,-132.6 4066.2,-640.9 3823.1,132.6 -243.1,773.5 -3977.8,353.6 -5944.6,972.3 -1966.83,618.8 -3977.83,1944.8 -4773.38,3845.3 -795.54,1900.5 -1082.83,3801 -1701.6,3138 -618.78,-663 1149.14,-4132.5 3005.44,-6762.3"
         style="fill:#92191e;fill-opacity:1;fill-rule:evenodd;stroke:none"
         id="path40" />
      <path
         d="m 19453.1,23712.9 c 2615.9,0 6621.5,1308 7643.4,-1961.9 1021.8,-3269.8 -2329.9,-6171.9 -1308,-7643.3 1021.8,-1471.5 5354.4,204.3 5354.4,3801.2 0,3596.9 735.8,2861.2 449.6,5477 -17,155.7 -2602.6,6193.8 -5967.5,4618.8 -3842.1,-1798.5 -9768.8,-4087.4 -6171.9,-4291.8"
         style="fill:#f2b432;fill-opacity:1;fill-rule:evenodd;stroke:none"
         id="path42" />
      <path
         d="m 8129.85,6591.6 c 287.29,-386.7 1116.02,-872.9 1314.9,-1104.9 198.89,-232.1 3005.45,-1535.8 3491.65,-1988.9 486.2,-453 1845.3,-1204.4 2950.2,-1325.9 1105,-121.6 1889.5,88.3 1226.5,276.2 -663,187.9 -2740.3,298.4 -3281.7,784.5 -541.4,486.2 -1889.5,1094 -2408.8,1326 -519.3,232 -519.3,232 -519.3,232 0,0 -3817.48,2580.6 -2773.45,1801"
         style="fill:#93451d;fill-opacity:1;fill-rule:evenodd;stroke:none"
         id="path44" />
      <path
         d="m 31411.1,6840.4 c 82.9,-353.6 408.8,-408.9 773.5,-298.4 364.6,110.5 381.2,116 381.2,116 0,0 1519.3,552.6 2016.6,1248.7 497.2,696.1 1983.3,3574.5 2348,4204.3 364.6,629.8 707.1,1513.8 541.4,1458.5 -165.7,-55.2 -2154.6,-4541.3 -3392.2,-5314.8 -1237.5,-773.4 -1524.8,-1143.6 -1977.9,-1248.6 -453,-105 -502.7,110.5 -690.6,-165.7"
         style="fill:#93451d;fill-opacity:1;fill-rule:evenodd;stroke:none"
         id="path46" />
      <path
         d="m 21326.2,5942.6 c 1644.7,-238.1 2943.1,-281.4 3873.7,21.6 930.4,303 2077.4,1449.9 2596.8,1449.9 519.3,0 540.9,0 540.9,0 0,0 1536.5,584.2 1796.2,1060.3 259.7,476.1 1990.9,2596.9 3202.8,2964.8 1211.8,367.8 1352.6,985.8 1368.7,1780.5 16.2,794.6 254,2108.6 600.5,2763.9 346.6,655.2 -1438.8,5369.5 -340.6,6482.6 1098.2,1113 708.7,1978.7 -243.5,3320.3 -952.2,1341.7 -2021.2,2394 -2285.7,3454.8 -264.6,1060.8 -2799.7,1825.4 -3513.8,2864.1 -714.1,1038.8 -868.1,3157.6 -2077.4,3246 -1209.4,88.5 -1209.4,88.5 -1209.4,88.5 0,0 -1387.5,-348.1 -2361.3,149.6 -973.7,497.7 -4825.5,1796.1 -6491.8,1060.3 -1666.4,-735.7 -2055.9,-1601.3 -2986.4,-1687.9 -930.5,-86.6 -2279.4,77.4 -2943,-605.9 -663.7,-683.3 -476.2,-1146.9 -1190.29,-1428.3 -714.12,-281.3 -3505.68,-1038.6 -3743.72,-1687.9 -238.05,-649.2 -281.28,-4392.9 -1514.75,-5712.9 -1233.48,-1320.1 -2191.99,-5025 -1190.17,-6297.3 1001.77,-1272.2 2868.12,-1686.7 2494.44,-3981.2 -373.72,-2294.4 275.45,-3463 1573.88,-4242 1298.43,-779 2120.73,-1038.7 2769.91,-2077.4 649.3,-1038.8 1688,-2380.5 3289.3,-2899.8 1569.7,-509.1 1045.7,-812 3809.6,-903.7 525.1,-17.2 1971.1,1136.1 4175.1,817.1 z m -3671.3,31914.3 c 0,0 4679.2,159.9 6963.9,-362.3 2284.8,-522.2 5852.2,-2934.4 7289.7,-4535.3 1437.5,-1600.9 5732.8,-7452.3 5798.1,-9510.6 65.3,-2058.3 196,-3528.5 392,-4279.9 196,-751.4 65.4,-1012.8 -196,-1960.3 -261.4,-947.4 -424.7,-1568.2 -392,-2156.2 32.6,-588.1 -2450.4,-6240.2 -3887.9,-7220.3 -1437.5,-980.2 -2875,-980.2 -3201.8,-1698.9 -326.7,-718.8 -4606.6,-3038.5 -5488.7,-3169.1 -882.1,-130.7 -1960.2,98 -2581,-98 -620.7,-196.1 -1862.3,-326.8 -2581,-98.1 C 19051.4,2996.7 17573.3,2394.6 16023,2557.8 14472.6,2721 9968.41,5054.7 9087.13,5838 8205.9,6621.3 6100.7,9004 5350,9428.3 c -750.72,424.3 -2660.1,5140.6 -2643.76,6544.1 16.3,1403.5 114.22,2007.3 -391.69,2660.1 -505.92,652.8 -603.8,1485.1 -473.25,2366.3 130.53,881.3 1158.68,4487.9 1142.37,4961.1 -16.34,473.3 16.31,946.6 456.95,1517.8 440.6,571.2 701.69,962.8 767.01,1419.8 65.29,456.9 1093.39,1191.3 1256.59,1697.2 163.21,505.9 1338.18,3166 3981.93,4553.2 2643.75,1387.1 6087.15,2398.9 6380.95,2676.3 293.8,277.4 1827.8,32.7 1827.8,32.7 v 0"
         style="fill:#df9715;fill-opacity:1;fill-rule:evenodd;stroke:none"
         id="path48" />
      <path
         d="m 37859.6,20753 c 64.4,-687 144.1,-1220 239,-1584.2 196,-751.4 65.4,-1012.8 -196,-1960.3 -261.4,-947.4 -424.7,-1568.2 -392,-2156.2 32.6,-588.1 -2450.4,-6240.2 -3887.9,-7220.3 -1437.5,-980.2 -2875,-980.2 -3201.8,-1698.9 -326.7,-718.8 -4606.6,-3038.5 -5488.7,-3169.1 -882.1,-130.7 -1960.2,98 -2581,-98 -620.7,-196.1 -1862.3,-326.8 -2581,-98.1 -449.5,143.1 -1195.8,-38.7 -2071.1,-155.2 0,0 1481.6,441.4 2425.5,402.2 944,-39.1 1759,58.7 2665.1,567 906,508.3 1127,729.3 2254.1,795.6 1127,66.3 1149.1,66.3 1149.1,66.3 0,0 1635.3,861.8 2585.6,1524.8 950.3,663 972.4,685.1 972.4,685.1 0,0 729.2,1060.7 1900.5,1127 1171.2,66.3 2342.6,640.9 3580.1,3469.6 1237.6,2828.7 1392.2,3204.4 1812.1,4265.1 419.9,1060.8 419.9,1105 419.9,1105 0,0 652.1,2063.2 406.5,3856.3 -20.3,148.4 -22.6,236.9 -10.4,276.3"
         style="fill:#d08619;fill-opacity:1;fill-rule:evenodd;stroke:none"
         id="path50" />
      <path
         d="m 10409.1,8391 c 0.6,-1.1 913.7,-1772.6 1852.6,-2181.3 939.2,-408.8 1215.4,-386.6 1535.9,-662.9 320.4,-276.3 1436.4,-784.5 2475.1,-784.5 1038.6,0 1745.8,254.1 2055.2,464 309.4,210 309.4,221 309.4,221 0,0 1193.2,508.4 2806.4,88.5 1613.3,-419.9 3142.4,-338.9 4110.5,110.5 968,449.4 2187.7,1414.4 2662.9,1314.9 475.1,-99.4 2320.4,806.6 2408.8,1392.2 88.4,585.7 1300.6,2122.6 2585.6,2453 1285,330.4 1679.5,972.3 2033.1,2254.1 353.6,1281.8 374.9,2821 751.6,3193.3 376.6,372.3 -254.2,662.9 -353.7,1414.3 -99.4,751.4 -1171.6,2753.5 -569.2,3879.5 602.5,1126 1331.8,1744.7 823.5,2761.3 -508.3,1016.5 -1583.7,2093.7 -1583.7,2093.7 l -30.6,-23.1 c 147,-191.7 294.4,-389 439.2,-593 952.2,-1341.6 1341.7,-2207.3 243.5,-3320.3 -1098.2,-1113.1 687.2,-5827.4 340.6,-6482.6 -346.5,-655.3 -584.3,-1969.3 -600.5,-2763.9 -16.1,-794.7 -156.9,-1412.7 -1368.7,-1780.5 -1211.9,-367.9 -2943.1,-2488.7 -3202.8,-2964.8 -259.7,-476.1 -1796.2,-1060.3 -1796.2,-1060.3 0,0 -21.6,0 -540.9,0 -519.4,0 -1666.4,-1146.9 -2596.8,-1449.9 -930.6,-303 -2229,-259.7 -3873.7,-21.6 -2204,319 -3650,-834.3 -4175.1,-817.1 -2763.9,91.7 -2239.9,394.6 -3809.6,903.7 -1335.2,433 -2279.2,1437.7 -2932.4,2361.8"
         style="fill:#f2b432;fill-opacity:1;fill-rule:evenodd;stroke:none"
         id="path52" />
      <path
         d="m 11007.9,7633.1 0.1,-0.2 c 40.2,-70.8 92.9,-126.7 155.9,-169.6 -53.2,56.1 -105.2,112.8 -156,169.8 z m -7466.49,11234 c 673.2,-1057.7 1340.99,-2295.8 1327.02,-3569.8 -22.09,-2011.1 353.57,-3867.4 1635.32,-4508.2 1059.65,-529.8 2989.81,-1537.4 4003.75,-2534.8 -169.5,231.2 -320.8,459.4 -455.3,674.6 -649.18,1038.8 -1471.52,1298.5 -2769.91,2077.5 -1298.43,779 -1947.63,1947.6 -1573.88,4242 335.86,2062.4 -1137.86,2606 -2167,3618.7 z m 2083.6,12128.1 c 57.8,127.9 129.8,276.8 216.9,441.8 663.84,887.6 2476.41,1368.3 3197.51,1871.4 856.26,597.3 955.88,794.9 955.88,794.9 0,0 66.3,22.1 508.3,729.3 442,707.2 1657.9,805.2 3359,861.8 1701.2,56.7 1676.3,1027.3 3142.7,1344.7 1466.4,317.4 4790.7,-85.1 5939.9,-681.8 1149.1,-596.7 2497.2,-221 4088.3,-618.7 1591.1,-397.8 2276.1,-2917.1 2728.1,-3674.9 452.1,-757.8 2111.5,-1319.5 2686.1,-1673.1 574.6,-353.6 883.9,-1480.6 883.9,-1480.6 0,0 0,-44.2 287.3,-861.9 287.3,-817.7 775.9,-1816.1 775.9,-1816.1 -857.3,1134.8 -1724.3,2068.7 -1958.9,3009.3 -264.4,1060.8 -2799.6,1825.4 -3513.7,2864.1 -714.1,1038.8 -868.1,3157.6 -2077.4,3246 -1209.4,88.5 -1209.4,88.5 -1209.4,88.5 0,0 -1387.5,-348.1 -2361.3,149.6 -973.7,497.7 -4825.5,1796.1 -6491.8,1060.3 -1666.4,-735.7 -2055.9,-1601.3 -2986.4,-1687.9 -930.6,-86.6 -2279.4,77.4 -2943,-605.9 -663.7,-683.3 -476.2,-1146.9 -1190.25,-1428.3 C 8948.52,32646.4 6156.93,31889.1 5918.89,31239.8 5680.84,30590.6 5637.61,26846.9 4404.14,25526.9 3322.17,24369 2451.96,21376.2 2930.55,19799.8 c -162.77,248.2 -311,480.4 -431.75,693.9 -715.12,1264 667.95,4195.5 1441.41,5455.2 773.47,1259.6 1480.61,3690.4 1664.17,4943.4 5.1,34.9 12.18,69.1 20.63,102.9 v 0"
         style="fill:#ce7d1a;fill-opacity:1;fill-rule:evenodd;stroke:none"
         id="path54" />
      <path
         d="m 13919.5,36353 c 311.3,-80.7 739.2,-55.1 1143.1,237.6 403.9,292.7 403.9,292.7 403.9,292.7 0,0 729.2,519.4 1801,541.5 1071.8,22.1 4121.5,33.1 5314.8,-375.7 1193.4,-408.9 1447.6,-652 2254.2,-652 806.6,0 2686.6,-384.1 3171.2,-839.7 484.6,-455.6 -828.8,1281.7 -3204.4,1635.3 -2375.7,353.6 -4232,585.6 -5160.1,541.4 -928.2,-44.2 -928.2,-44.2 -928.2,-44.2 0,0 -2243,132.7 -3093.8,-198.8 -850.8,-331.5 -1944.7,-784.6 -1701.7,-1138.1"
         style="fill:#f1a515;fill-opacity:1;fill-rule:evenodd;stroke:none"
         id="path56" />
      <path
         d="m 29134.9,34231.5 c 156.5,-251.8 541.4,-1646.3 1215.4,-2143.6 674.1,-497.2 2994.5,-1171.2 3171.2,-2331.4 176.8,-1160.2 342.6,-1955.8 729.3,-2486.1 386.7,-530.4 1933.6,-1436.4 2066.2,-2563.5 132.6,-1127 -859,-2134.8 -749.9,-3956.8 109.1,-1822.1 345.2,-3051.6 1044.8,-3254.5 699.6,-202.9 1075.3,283.2 832.2,1476.6 -183.9,902.6 -663.3,2395.2 -618.8,3182.3 66.3,1171.2 572.8,2509.6 -199.8,3608.3 -772.6,1098.7 -2032,2203.7 -2363.5,3209.2 -331.5,1005.5 -806.6,1867.3 -1569,2497.2 -762.4,629.8 -2149.5,1655.2 -2696.1,2486.1 -546.5,830.8 -1335.4,1044.5 -862,276.2"
         style="fill:#f1a515;fill-opacity:1;fill-rule:evenodd;stroke:none"
         id="path58" />
      <path
         d="m 36295.3,22253.9 c -110.6,-596.7 -176.8,-1016.5 -176.8,-2011 0,-994.5 287.2,-2066.2 740.3,-2243 453,-176.9 448.3,794.5 246.2,1585 -202,790.6 -544.6,2337.5 -345.7,3199.4 198.9,861.8 364.7,1795.5 0.1,2464 -364.6,668.5 -756.9,895 -895,895 -138.1,0 762.4,-773.4 762.4,-1646.4 0,-872.9 -232,-1751.2 -331.5,-2243"
         style="fill:#fab833;fill-opacity:1;fill-rule:evenodd;stroke:none"
         id="path60" />
      <path
         d="m 10409.1,8391 c 32.1,-45.4 64.9,-91 98.4,-136.7 -33.5,45.7 -66.3,91.3 -98.4,136.7 z m 4472.8,-2539.6 c -342.6,331.5 -497.3,320.5 -1458.6,607.8 -961.3,287.3 -1613.1,685 -2176.6,1392.1 -563.6,707.2 -1271.64,1196.3 -1271.67,1196.3 25.97,-38.4 51.77,-78 77.17,-118.6 108,-172.7 226.6,-353.7 356.9,-538 32.1,-45.4 64.9,-91 98.4,-136.7 151.8,-207.1 318.2,-416.5 500.4,-621.2 50.7,-57 102.7,-113.7 156,-169.9 572,-603.2 1288,-1145.5 2177.6,-1434 1569.7,-509.1 1045.7,-812 3809.6,-903.7 244.9,-8 690,238.5 1318.8,471.6 -266.4,49.6 -528,88.3 -782.7,110.5 -25.7,2.2 -51.7,4.7 -77.8,7.4 -245.5,-81.6 -468.3,-147.9 -650.2,-184 -837.5,-166.1 -1734.8,-11 -2077.3,320.4 v 0"
         style="fill:#df9715;fill-opacity:1;fill-rule:evenodd;stroke:none"
         id="path62" />
      <path
         d="m 20296.2,6503.4 c -622.8,0 -1802.1,-494.1 -2686.8,-788.4 26.1,-2.7 52.1,-5.2 77.8,-7.4 254.7,-22.2 516.3,-60.9 782.7,-110.5 719.7,266.6 1680.1,515.7 2856.3,345.5 1644.7,-238.1 2943.1,-281.4 3873.7,21.6 930.4,303 2077.4,1449.9 2596.8,1449.9 519.3,0 540.9,0 540.9,0 0,0 1536.5,584.2 1796.2,1060.3 259.7,476.1 1990.9,2596.9 3202.8,2964.8 502.8,152.6 821.3,348.3 1022.9,581.9 111.5,306.7 223.8,627 335.7,957.3 5.5,78.5 8.5,158.9 10.1,241.3 16.2,794.6 254,2108.6 600.5,2763.9 233.5,441.5 -500.9,2725.8 -668.9,4509.7 -1106.3,-621.1 43.8,-1704.6 -42.6,-2741.5 -44.2,-530.4 66.3,-729.2 132.6,-2099.4 66.3,-1370.1 -1525,-3646.4 -2718.3,-4066.2 C 30815.2,11166.3 29798.7,9752 29798.7,9752 c 0,0 -22.2,-22.1 -375.7,-773.5 -353.6,-751.3 -994.5,-729.3 -1502.7,-508.3 -508.3,221 -1149.2,-1259.6 -3138.1,-1546.9 -1989,-287.3 -3690.5,-419.9 -4486,-419.9"
         style="fill:#cd2624;fill-opacity:1;fill-rule:evenodd;stroke:none"
         id="path64" />
      <path
         d="m 34636.9,20493.3 c 168,-1783.9 902.4,-4068.2 668.9,-4509.7 -346.5,-655.3 -584.3,-1969.3 -600.5,-2763.9 -1.6,-82.4 -4.6,-162.8 -10.1,-241.3 425.6,1255.9 846.2,2657 1202,4010.7 -105.5,180.7 -217.4,397.5 -254.7,679 -75.6,571.4 -713.8,1866.1 -750.2,2948.8 -11.5,341 36.7,661 181,930.7 602.5,1126 1331.8,1744.7 823.5,2761.3 -118.4,236.9 -267.7,477 -426.9,706.1 -82.6,-19.1 -137.9,-75.4 -150.8,-162.8 456.6,-858.9 467.8,-1553.2 -353.9,-2386 -270.8,-274.4 -366.2,-767.7 -361.6,-1365 1.5,-193.1 13.4,-397 33.3,-607.9"
         style="fill:#92191e;fill-opacity:1;fill-rule:evenodd;stroke:none"
         id="path66" />
      <path
         d="m 34965.2,22466.2 c 821.7,832.8 810.5,1527.1 353.9,2386 -70.9,-479.7 -349,-1443 -1012,-2835.2 -182.8,-384 -239.6,-840.3 -226.9,-1310.9 174.7,117 351.1,249.1 523.4,395.1 -4.6,597.3 90.8,1090.6 361.6,1365"
         style="fill:#cd2624;fill-opacity:1;fill-rule:evenodd;stroke:none"
         id="path68" />
      <path
         d="m 2985.91,17105.8 c -19.42,-1047.5 -140.68,-1148.9 367.61,-2253.8 508.28,-1105 950.23,-3712.6 1966.78,-4596.5 1016.54,-884 3093.87,-2408.9 3734.73,-3403.3 640.85,-994.5 1779.37,-1816.6 3464.17,-2709.4 1684.9,-892.8 3638.1,-1830.3 4683.5,-1262.1 1045.5,568.2 2482,568.2 3277.5,479.9 795.6,-88.5 1247.2,1458 274.7,1698 -2446.7,603.5 -1976.4,-1671.3 -4451.4,-1145.6 -1542,327.5 -2525.7,1162.2 -3447.4,1436.4 -921.8,274.3 -1546.1,954.3 -2130.8,1560.8 -584.6,606.4 -686.9,1268 -1438.21,1942 -751.35,674 -2674.02,1060.8 -3370.14,1801.1 -696.12,740.3 -1569.04,2685.1 -1546.92,3635.3 22.11,950.3 -209.98,2895 -773.5,3767.9 -563.51,872.9 -971.68,1968.6 -1303.83,1955.7 -332.16,-12.8 77.34,-530.4 408.83,-1403.3 331.49,-872.8 224.77,-935.7 284.38,-1503.1"
         style="fill:#f1a515;fill-opacity:1;fill-rule:evenodd;stroke:none"
         id="path70" />
      <path
         d="m 11397.6,5294.5 c 309.3,-276.2 2342.4,-1734.8 3734.7,-2000 1392.3,-265.1 1712.7,-397.7 2154.7,-132.5 441.9,265.1 795.5,419.8 1370.1,419.8 574.6,0 1756.9,-88.3 2077.3,342.6 320.5,430.9 442.1,1502.7 -751.3,1016.5 -1193.4,-486.2 -2099.5,-1414.3 -3116,-1469.6 -1016.6,-55.2 -2265.1,176.8 -2530.3,519.3 -265.2,342.6 -322,729.3 -1304.7,1005.5 -982.6,276.3 -1943.9,519.4 -1634.5,298.4"
         style="fill:#fab833;fill-opacity:1;fill-rule:evenodd;stroke:none"
         id="path72" />
      <path
         d="m 5121.64,11393.9 c 154.72,-353.6 788.46,-1372.1 1449.47,-1531.3 660.99,-159.2 2738.26,-910.6 3224.44,-1871.9 486.15,-961.3 1292.25,-1713.1 839.75,-1790.1 -452.4,-76.9 -721.48,-90.6 -1051.34,579 -329.84,669.6 -425.36,1175.1 -904.41,1398.9 -479.06,223.8 -479.06,223.8 -479.06,223.8 0,0 -1885.53,1135.2 -2449.08,1654.6 -563.55,519.3 -1060.78,2232 -629.77,1337"
         style="fill:#fab833;fill-opacity:1;fill-rule:evenodd;stroke:none"
         id="path74" />
      <path
         d="m 34586.7,11193.8 c 198.9,-221 203.1,-374.3 -327.3,-1203 -530.4,-828.7 -353.6,-950.3 -1359.1,-1259.7 -92.4,-28.4 -1442.9,-596 -1535.9,-342.5 -121.5,331.5 -121.5,265.2 -121.5,331.5 0,66.3 -209.9,408.8 839.8,1093.9 1049.7,685 1852.1,1125.6 2504,1379.8"
         style="fill:#fab833;fill-opacity:1;fill-rule:evenodd;stroke:none"
         id="path76" />
      <path
         d="m 7750.42,33516.7 c 430.95,475.1 364.63,475.1 453.04,508.2 88.39,33.2 1657.44,1337.1 3348.04,1911.6 1690.6,574.6 2044.1,430.9 1999.9,209.9 -44.2,-220.9 -2563.4,-453 -2972.3,-917 -408.8,-464.1 -375.7,-961.4 -1546.93,-1602.2 -1171.23,-640.9 -1566.92,-507.2 -1808.55,-842.5 -241.61,-335.3 -75.59,449.8 526.8,732"
         style="fill:#fab833;fill-opacity:1;fill-rule:evenodd;stroke:none"
         id="path78" />
      <path
         d="m 4557.22,29119.1 c 364.64,309.4 475.15,-276.3 0,-1237.6 -475.15,-961.2 -906.02,-1325.9 -1027.61,-1812 -121.57,-486.2 -545.07,-1799.9 -767,-2281.1 -221.95,-481.3 -224.95,-922.2 -310.35,-901.1 -85.39,21 91.85,858.9 279.67,1397.4 187.84,538.6 239.61,2298.7 604.25,2718.6 364.63,419.8 883.94,961.2 1005.48,1215.4 121.55,254.1 44.2,696.1 215.56,900.4"
         style="fill:#fab833;fill-opacity:1;fill-rule:evenodd;stroke:none"
         id="path80" />
      <path
         d="m 10341.7,30119.1 c 1591.1,574.6 1149.2,1414.4 3823.1,2563.5 2674,1149.2 6033.1,1657.5 8110.4,1149.2 2077.3,-508.3 3867.3,-1237.6 2165.7,-1768 -1701.7,-530.3 -1635.4,-552.4 -1790.1,-552.4 -154.7,0 -5370,243.1 -5745.7,-1060.8 -375.7,-1303.8 1613.2,-2077.3 -309.4,-2563.5 -3423.3,-865.6 -3381,937.5 -6143.5,-243.1 -2585.57,-1104.9 -3336.95,-3911.5 -3911.53,-3580 -574.58,331.5 727.8,5654 3801.03,6055.1"
         style="fill:#e39b1d;fill-opacity:1;fill-rule:evenodd;stroke:none"
         id="path82" />
      <path
         d="m 16905.5,11136.5 c 1237.5,-817.6 1193.3,-2651.8 3712.6,-2607.7 2519.3,44.2 3602.2,1105 5082.8,1591.2 1480.6,486.2 2165.6,397.8 3160.1,1635.3 994.5,1237.5 -530.3,884 -2961.2,817.7 -2431,-66.3 -419.9,1878.3 -1303.9,2298.2 -884,419.9 -3491.6,-1215.4 -5149,-1745.8 -1657.5,-530.4 -1657.5,-530.4 -1657.5,-530.4 0,0 -1834.2,-972.3 -883.9,-1458.5"
         style="fill:#e39b1d;fill-opacity:1;fill-rule:evenodd;stroke:none"
         id="path84" />
      <path
         d="m 17857.9,36513.5 c 1550.4,0 2221.8,17 3734.8,-795.5 1193.3,-640.9 2209.9,-884 3027.5,-884 817.7,0 817.7,0 817.7,0 0,0 1568.9,-729.3 2563.4,-2453 994.4,-1723.7 1790,-1988.9 2607.7,-2519.3 817.6,-530.4 906,-574.6 906,-574.6 0,0 1107.4,-1297.8 1259.7,-2077.3 152.3,-779.4 1314.3,-2402 988.6,-5189.8 -325.8,-2787.9 948.5,-4726.3 293,-7030.9 C 33400.8,12684.5 31095,11364.9 30387.9,10237.9 29680.7,9110.9 29747,8668.9 28465.3,8337.4 27183.5,8005.9 27294,8028 27095.1,8005.9 26896.3,7983.8 25614.5,7099.9 24310.7,6503.2 23006.8,5906.5 20857,6459 19272.1,6083.3 17687.2,5707.6 17534.3,5376 16834.2,5508.7 c -700.1,132.6 -3291,1061.1 -4191.8,1237.6 -900.8,176.5 -1131.6,439.7 -1880.7,1777.8 -749.1,1338.2 -749.1,1360.2 -749.1,1360.2 0,0 -3238.63,1082.6 -3823.07,2696.1 -584.42,1613.5 1149.05,3867.4 176.68,5370.1 -972.38,1502.7 -2828.85,3535.8 -2033.29,5734.7 795.53,2198.8 2334.17,5213.3 2353.42,6165.6 19.24,952.2 1436.37,2574.4 2861.75,2685 1425.41,110.5 1403.21,497.2 1701.61,1082.8 298.3,585.6 3027.5,806.7 3878.3,1337 850.8,530.4 850.8,530.4 850.8,530.4 0,0 884,972.4 1879.1,1027.5"
         style="fill:#e98016;fill-opacity:1;fill-rule:evenodd;stroke:none"
         id="path86" />
      <path
         d="m 14840.5,34182.2 c 1038.6,287.3 1723.7,1635.3 3580,1281.7 1856.3,-353.6 1900.5,-353.6 1900.5,-353.6 0,0 539.7,-436 1927.3,-737.3 1387.6,-301.3 1498.1,-301.3 1498.1,-301.3 0,0 1414.3,243.1 2033.1,-574.6 618.8,-817.6 1149.2,-2386.7 1900.5,-2917 751.3,-530.4 3872.2,-650.2 4510.5,-3739.4 638.4,-3089.2 362.3,-4676.9 794.5,-5595 432.1,-918.2 1177.6,-5676.3 109,-7482.9 C 32025.5,11956.3 29602.4,10374.1 28541.7,10514.3 27345.2,10672.4 26522.5,8736.7 24983.7,7774 23319,6732.4 21646.8,7089 20210.4,6978.4 18773.9,6867.9 17204.9,5984 16100,6448 c -1105,464.1 -1620.5,522.5 -2257.7,614.9 -637.3,92.3 -1698,1042.6 -2449.4,1926.5 -751.4,884 -703.5,1624.4 -1790.02,1856.4 -1086.51,232 -2010.98,220.9 -2430.87,1524.8 -957.02,2971.6 1207.01,2849.6 242.98,5613.1 -662.96,1900.5 -662.96,1900.5 -662.96,1900.5 0,0 -831.01,3592.7 -264.42,5365.6 566.6,1772.9 566.6,1772.9 566.6,1772.9 0,0 581.53,684.5 603.63,1612.7 22.13,928.1 -574.64,1944.7 2077.27,2983.4 2651.89,1038.6 2740.29,883.9 3049.69,1591.1 309.4,707.2 2055.7,972.3 2055.7,972.3"
         style="fill:#f3a60e;fill-opacity:1;fill-rule:evenodd;stroke:none"
         id="path88" />
      <path
         d="m 10386.9,30315.9 c 2107.3,795.3 1192.8,2624.3 6560.4,3300.2 5367.6,675.9 8349.7,-0.1 9502.7,-1829 1153,-1829 -3976,-2942.3 -7713.5,-4811 -3737.4,-1868.7 -3498.8,-1351.9 -3777.2,-1948.2 -278.3,-596.4 -1590.4,-1630.2 596.4,-2027.8 2186.8,-397.6 7236.4,1868.7 8906.3,-596.4 1669.9,-2465.1 3260.3,-4055.5 -1153,-5765.2 -4413.4,-1709.7 -6560.5,-2266.4 -9741.3,-1749.5 -3180.8,516.9 -2743.4,397.6 -3300.1,636.2 -556.64,238.6 -1948.22,1550.6 -2703.66,3300.1 -1583.08,3666 -1208.3,9969.4 2822.96,11490.6"
         style="fill:#f19d10;fill-opacity:1;fill-rule:evenodd;stroke:none"
         id="path90" />
      <path
         d="m 10767.4,30472.7 c 1591.1,574.6 1149.1,1414.4 3823.1,2563.5 2674,1149.1 6033,1657.4 8110.3,1149.1 2077.3,-508.2 3867.4,-1237.5 2165.7,-1767.9 -1701.6,-530.3 -1635.3,-552.4 -1790,-552.4 -154.7,0 -5370,243 -5745.7,-1060.8 -375.7,-1303.8 1613.2,-2077.3 -309.4,-2563.5 -3423.3,-865.6 -3381.1,937.5 -6143.6,-243.1 -2585.51,-1104.9 -3336.89,-3911.5 -3911.46,-3580 -574.57,331.5 727.79,5653.9 3801.06,6055.1"
         style="fill:#f6b713;fill-opacity:1;fill-rule:evenodd;stroke:none"
         id="path92" />
      <path
         d="m 19790.4,24773.7 c 2615.9,0 6621.5,1307.9 7643.4,-1961.9 1021.7,-3269.9 -2329.9,-6171.9 -1308,-7643.4 1021.8,-1471.4 5354.4,204.4 5354.4,3801.3 0,3596.9 735.8,2861.1 449.6,5477 -17,155.7 -2602.6,6193.8 -5967.5,4618.7 -3842.2,-1798.4 -9768.8,-4087.3 -6171.9,-4291.7"
         style="fill:#f6b713;fill-opacity:1;fill-rule:evenodd;stroke:none"
         id="path94" />
      <path
         d="m 12092.9,12028.4 c 987.3,-998.2 1105.7,-2253.8 2496.3,-1657.4 1390.6,596.4 1423.6,1574.2 3241.1,1974.4 1817.5,400.2 4080.7,540.7 3628,1213.2 -452.8,672.5 -3914.4,-791 -5976,-756.5 -5916.77,99.2 -7334.4,3956.9 -7604.02,3416.7 -404.95,-811.4 1687.78,-2196.3 4214.62,-4190.4"
         style="fill:#f6b713;fill-opacity:1;fill-rule:evenodd;stroke:none"
         id="path96" />
      <path
         d="m 17419.5,9810.6 c 1237.6,-817.7 1193.4,-2651.8 3712.6,-2607.7 2519.3,44.2 3602.2,1105 5082.8,1591.2 1480.6,486.1 2165.7,397.8 3160.1,1635.3 994.5,1237.5 -530.3,884 -2961.2,817.6 -2430.9,-66.3 -419.9,1878.4 -1303.8,2298.3 -884,419.9 -3491.7,-1215.4 -5149.1,-1745.8 -1657.4,-530.4 -1657.4,-530.4 -1657.4,-530.4 0,0 -1834.3,-972.3 -884,-1458.5"
         style="fill:#f19d10;fill-opacity:1;fill-rule:evenodd;stroke:none"
         id="path98" />
    </g>
  </g>
</svg>
